<svg width="283" height="12" viewBox="0 0 283 12" fill="none" xmlns="http://www.w3.org/2000/svg">
<path d="M3.05708 8.87305C5.80571 8.87305 7.59829 6.97424 7.59829 4.45135C7.59829 1.94174 5.80571 0.0163803 3.05708 0.0163803H0.0296173V8.87305H3.05708ZM3.05708 7.89045H1.13172V0.998979H3.05708C5.24801 0.998979 6.45635 2.53927 6.45635 4.45135C6.45635 6.35016 5.20818 7.89045 3.05708 7.89045Z" fill="white"/>
<path d="M9.77853 1.54339C10.1503 1.54339 10.4557 1.25127 10.4557 0.879474C10.4557 0.50768 10.1503 0.202277 9.77853 0.202277C9.42001 0.202277 9.11461 0.50768 9.11461 0.879474C9.11461 1.25127 9.42001 1.54339 9.77853 1.54339ZM10.2831 8.87305V2.4596H9.28723V8.87305H10.2831Z" fill="white"/>
<path d="M14.8457 11.4756C16.4125 11.4756 17.8997 10.8117 17.8997 8.68715V2.4596H16.9038V3.42892C16.386 2.72517 15.6158 2.30026 14.7527 2.30026C13.0664 2.30026 11.8979 3.57498 11.8979 5.63313C11.8979 7.70455 13.0797 8.95272 14.7527 8.95272C15.6557 8.95272 16.4391 8.46142 16.9038 7.81078V8.72699C16.9038 10.1345 15.9079 10.6523 14.8457 10.6523C13.9295 10.6523 13.2921 10.4133 12.761 9.77598L12.2564 10.5196C13.0133 11.2632 13.7569 11.4756 14.8457 11.4756ZM14.9917 8.07635C13.7037 8.07635 12.9336 7.04064 12.9336 5.63313C12.9336 4.21234 13.7037 3.18991 14.9917 3.18991C15.7884 3.18991 16.5586 3.66793 16.9038 4.22562V7.02736C16.5586 7.58505 15.7884 8.07635 14.9917 8.07635Z" fill="white"/>
<path d="M20.3857 1.54339C20.7575 1.54339 21.0629 1.25127 21.0629 0.879474C21.0629 0.50768 20.7575 0.202277 20.3857 0.202277C20.0271 0.202277 19.7217 0.50768 19.7217 0.879474C19.7217 1.25127 20.0271 1.54339 20.3857 1.54339ZM20.8902 8.87305V2.4596H19.8944V8.87305H20.8902Z" fill="white"/>
<path d="M24.4968 9.03239C25.081 9.03239 25.4395 8.85977 25.6918 8.62076L25.3997 7.87717C25.2669 8.02323 25.0013 8.14274 24.7225 8.14274C24.2843 8.14274 24.0719 7.7975 24.0719 7.31948V3.33597H25.3731V2.4596H24.0719V0.706856H23.076V2.4596H22.0137V3.33597H23.076V7.53193C23.076 8.48798 23.554 9.03239 24.4968 9.03239Z" fill="white"/>
<path d="M31.7859 8.87305V4.46463C31.7859 2.91106 30.6572 2.30026 29.3028 2.30026C28.2538 2.30026 27.4306 2.6455 26.7401 3.36253L27.2048 4.053C27.7758 3.4422 28.3999 3.16335 29.17 3.16335C30.0995 3.16335 30.79 3.65465 30.79 4.51775V5.67296C30.2721 5.07544 29.5418 4.79659 28.6654 4.79659C27.5766 4.79659 26.4214 5.47379 26.4214 6.90785C26.4214 8.30208 27.5766 9.03239 28.6654 9.03239C29.5285 9.03239 30.2588 8.72699 30.79 8.14274V8.87305H31.7859ZM29.024 8.31536C28.0945 8.31536 27.4438 7.73111 27.4438 6.92113C27.4438 6.09787 28.0945 5.51362 29.024 5.51362C29.7277 5.51362 30.4049 5.77919 30.79 6.31033V7.51866C30.4049 8.04979 29.7277 8.31536 29.024 8.31536Z" fill="white"/>
<path d="M34.7781 8.87305V0.0163803H33.7822V8.87305H34.7781Z" fill="white"/>
<path d="M39.3539 6.09787V5.2215H36.1671V6.09787H39.3539Z" fill="white"/>
<path d="M41.7016 8.87305L45.0876 3.88038V8.87305H46.0834V2.4596H45.1008L41.7414 7.35932V2.4596H40.7455V8.87305H41.7016Z" fill="white"/>
<path d="M49.0679 8.87305V6.00492H52.414V8.87305H53.4099V2.4596H52.414V5.12855H49.0679V2.4596H48.072V8.87305H49.0679Z" fill="white"/>
<path d="M57.5628 8.87305V3.33597H59.435V2.4596H54.7079V3.33597H56.5669V8.87305H57.5628Z" fill="white"/>
<path d="M63.6356 9.03239C64.6846 9.03239 65.5477 8.68715 66.185 8.04979L65.707 7.39915C65.2024 7.91701 64.4588 8.20913 63.7285 8.20913C62.3476 8.20913 61.4978 7.19998 61.4181 5.99164H66.6099V5.73936C66.6099 3.81399 65.468 2.30026 63.5293 2.30026C61.6969 2.30026 60.3691 3.80071 60.3691 5.65969C60.3691 7.66472 61.7368 9.03239 63.6356 9.03239ZM65.6273 5.26133H61.4181C61.4712 4.27874 62.1484 3.12352 63.5161 3.12352C64.9767 3.12352 65.6141 4.30529 65.6273 5.26133Z" fill="white"/>
<path d="M72.711 2.4596H68.2229V8.87305H69.2188V3.33597H72.711V2.4596Z" fill="white"/>
<path d="M77.1665 9.03239C78.8529 9.03239 80.0214 7.73111 80.0214 5.65969C80.0214 3.57498 78.8529 2.30026 77.1665 2.30026C76.2636 2.30026 75.4669 2.765 75.0022 3.41564V2.4596H74.0063V11.3163H75.0022V7.90373C75.52 8.62076 76.2902 9.03239 77.1665 9.03239ZM76.9143 8.14274C76.1308 8.14274 75.3474 7.66472 75.0022 7.10703V4.21234C75.3474 3.65465 76.1308 3.18991 76.9143 3.18991C78.2023 3.18991 78.9724 4.2389 78.9724 5.65969C78.9724 7.08047 78.2023 8.14274 76.9143 8.14274Z" fill="white"/>
<path d="M86.611 8.87305V4.46463C86.611 2.91106 85.4823 2.30026 84.1279 2.30026C83.0789 2.30026 82.2557 2.6455 81.5652 3.36253L82.0299 4.053C82.6009 3.4422 83.225 3.16335 83.9951 3.16335C84.9246 3.16335 85.6151 3.65465 85.6151 4.51775V5.67296C85.0972 5.07544 84.3669 4.79659 83.4906 4.79659C82.4017 4.79659 81.2465 5.47379 81.2465 6.90785C81.2465 8.30208 82.4017 9.03239 83.4906 9.03239C84.3537 9.03239 85.084 8.72699 85.6151 8.14274V8.87305H86.611ZM83.8491 8.31536C82.9196 8.31536 82.269 7.73111 82.269 6.92113C82.269 6.09787 82.9196 5.51362 83.8491 5.51362C84.5528 5.51362 85.23 5.77919 85.6151 6.31033V7.51866C85.23 8.04979 84.5528 8.31536 83.8491 8.31536Z" fill="white"/>
<path d="M90.7717 8.87305V3.33597H92.6439V2.4596H87.9168V3.33597H89.7758V8.87305H90.7717Z" fill="white"/>
<path d="M96.7515 9.03239C98.7034 9.03239 99.925 7.51866 99.925 5.65969C99.925 3.80071 98.7034 2.30026 96.7515 2.30026C94.7996 2.30026 93.578 3.80071 93.578 5.65969C93.578 7.51866 94.7996 9.03239 96.7515 9.03239ZM96.7515 8.14274C95.3838 8.14274 94.6137 6.97424 94.6137 5.65969C94.6137 4.35841 95.3838 3.18991 96.7515 3.18991C98.1192 3.18991 98.876 4.35841 98.876 5.65969C98.876 6.97424 98.1192 8.14274 96.7515 8.14274Z" fill="white"/>
<path d="M104.709 9.03239C106.395 9.03239 107.564 7.73111 107.564 5.65969C107.564 3.57498 106.395 2.30026 104.709 2.30026C103.806 2.30026 103.009 2.765 102.544 3.41564V2.4596H101.549V11.3163H102.544V7.90373C103.062 8.62076 103.832 9.03239 104.709 9.03239ZM104.456 8.14274C103.673 8.14274 102.89 7.66472 102.544 7.10703V4.21234C102.89 3.65465 103.673 3.18991 104.456 3.18991C105.744 3.18991 106.515 4.2389 106.515 5.65969C106.515 7.08047 105.744 8.14274 104.456 8.14274Z" fill="white"/>
<path d="M115.399 9.03239C116.567 9.03239 117.258 8.55437 117.749 7.91701L117.085 7.3062C116.66 7.87717 116.116 8.14274 115.452 8.14274C114.084 8.14274 113.235 7.08047 113.235 5.65969C113.235 4.2389 114.084 3.18991 115.452 3.18991C116.116 3.18991 116.66 3.4422 117.085 4.02645L117.749 3.41564C117.258 2.77828 116.567 2.30026 115.399 2.30026C113.487 2.30026 112.199 3.76088 112.199 5.65969C112.199 7.57177 113.487 9.03239 115.399 9.03239Z" fill="white"/>
<path d="M124.321 9.03239C126.246 9.03239 127.534 7.57177 127.534 5.65969C127.534 3.76088 126.246 2.30026 124.321 2.30026C123.153 2.30026 122.462 2.77828 121.971 3.41564L122.608 3.99989C123.033 3.41564 123.604 3.12352 124.281 3.12352C125.49 3.12352 126.286 3.94678 126.446 5.19494H123.232V6.05804H126.459C126.326 7.34604 125.516 8.20913 124.281 8.20913C123.604 8.20913 123.033 7.90373 122.608 7.33276L121.971 7.91701C122.462 8.55437 123.153 9.03239 124.321 9.03239Z" fill="white"/>
<path d="M134.786 8.87305L131.931 5.36756L134.773 2.4596H133.511L130.138 5.87214V2.4596H129.143V8.87305H130.138V7.04063L131.201 5.99164L133.511 8.87305H134.786Z" fill="white"/>
<path d="M138.753 9.03239C139.921 9.03239 140.612 8.55437 141.103 7.91701L140.439 7.3062C140.014 7.87717 139.47 8.14274 138.806 8.14274C137.438 8.14274 136.588 7.08047 136.588 5.65969C136.588 4.2389 137.438 3.18991 138.806 3.18991C139.47 3.18991 140.014 3.4422 140.439 4.02645L141.103 3.41564C140.612 2.77828 139.921 2.30026 138.753 2.30026C136.841 2.30026 135.553 3.76088 135.553 5.65969C135.553 7.57177 136.841 9.03239 138.753 9.03239Z" fill="white"/>
<path d="M147.837 8.87305V2.4596H142.499V8.87305H143.495V3.33597H146.841V8.87305H147.837Z" fill="white"/>
<path d="M152.72 9.03239C153.769 9.03239 154.632 8.68715 155.269 8.04979L154.791 7.39915C154.287 7.91701 153.543 8.20913 152.813 8.20913C151.432 8.20913 150.582 7.19998 150.502 5.99164H155.694V5.73936C155.694 3.81399 154.552 2.30026 152.614 2.30026C150.781 2.30026 149.453 3.80071 149.453 5.65969C149.453 7.66472 150.821 9.03239 152.72 9.03239ZM154.712 5.26133H150.502C150.556 4.27874 151.233 3.12352 152.6 3.12352C154.061 3.12352 154.698 4.30529 154.712 5.26133Z" fill="white"/>
<path d="M160.468 9.03239C162.154 9.03239 163.322 7.73111 163.322 5.65969C163.322 3.57498 162.154 2.30026 160.468 2.30026C159.565 2.30026 158.768 2.765 158.303 3.41564V2.4596H157.307V11.3163H158.303V7.90373C158.821 8.62076 159.591 9.03239 160.468 9.03239ZM160.215 8.14274C159.432 8.14274 158.648 7.66472 158.303 7.10703V4.21234C158.648 3.65465 159.432 3.18991 160.215 3.18991C161.503 3.18991 162.273 4.2389 162.273 5.65969C162.273 7.08047 161.503 8.14274 160.215 8.14274Z" fill="white"/>
<path d="M167.07 8.87305V3.33597H168.943V2.4596H164.216V3.33597H166.075V8.87305H167.07Z" fill="white"/>
<path d="M171.205 8.87305L174.591 3.88038V8.87305H175.586V2.4596H174.604L171.244 7.35932V2.4596H170.248V8.87305H171.205Z" fill="white"/>
<path d="M179.846 9.03239C181.691 9.03239 182.78 8.23569 182.78 7.16014C182.78 6.09787 181.665 5.64641 180.921 5.59329C181.678 5.50034 182.647 4.98249 182.647 4.02645C182.647 2.93762 181.426 2.30026 179.699 2.31354C178.531 2.31354 177.668 2.72517 177.07 3.33597L177.588 3.94678C178.133 3.38909 178.836 3.12352 179.739 3.12352C180.802 3.12352 181.612 3.53515 181.612 4.14595C181.612 4.87626 180.775 5.2215 179.713 5.2215H178.279V6.03148H179.713C180.841 6.03148 181.731 6.29705 181.731 7.09375C181.731 7.77095 180.987 8.20913 179.846 8.20913C178.889 8.20913 178.04 7.91701 177.442 7.34604L176.951 7.9834C177.588 8.62076 178.558 9.03239 179.846 9.03239Z" fill="white"/>
<path d="M187.197 9.03239C189.149 9.03239 190.371 7.51866 190.371 5.65969C190.371 3.80071 189.149 2.30026 187.197 2.30026C185.245 2.30026 184.024 3.80071 184.024 5.65969C184.024 7.51866 185.245 9.03239 187.197 9.03239ZM187.197 8.14274C185.83 8.14274 185.06 6.97424 185.06 5.65969C185.06 4.35841 185.83 3.18991 187.197 3.18991C188.565 3.18991 189.322 4.35841 189.322 5.65969C189.322 6.97424 188.565 8.14274 187.197 8.14274Z" fill="white"/>
<path d="M192.95 8.87305L196.336 3.88038V8.87305H197.332V2.4596H196.35L192.99 7.35932V2.4596H191.994V8.87305H192.95ZM196.987 0.560793L196.496 0.135886C196.084 0.733412 195.433 1.09193 194.663 1.09193C193.88 1.09193 193.243 0.720134 192.818 0.135886L192.326 0.560793C192.871 1.27782 193.721 1.72929 194.663 1.72929C195.619 1.72929 196.456 1.27782 196.987 0.560793Z" fill="white"/>
<path d="M206.343 8.87305C207.524 8.87305 208.215 8.1693 208.215 7.13358C208.215 6.40327 207.697 5.72608 207.046 5.56674C207.591 5.39412 208.082 4.87626 208.082 4.10612C208.082 3.1368 207.405 2.4596 206.276 2.4596H202.744V8.87305H206.343ZM206.143 7.99668H203.74V6.0182H206.143C206.821 6.0182 207.179 6.49622 207.179 7.01408C207.179 7.62488 206.781 7.99668 206.143 7.99668ZM206.104 5.14183H203.74V3.33597H206.104C206.714 3.33597 207.06 3.69449 207.06 4.25218C207.06 4.75676 206.728 5.14183 206.104 5.14183Z" fill="white"/>
<path d="M220.066 8.87305V2.4596H218.738L216.8 7.21325L214.834 2.4596H213.52V8.87305H214.516V3.84055L216.614 8.87305H216.986L219.07 3.84055V8.87305H220.066Z" fill="white"/>
<path d="M227.058 8.87305V4.46463C227.058 2.91106 225.93 2.30026 224.575 2.30026C223.526 2.30026 222.703 2.6455 222.012 3.36253L222.477 4.053C223.048 3.4422 223.672 3.16335 224.442 3.16335C225.372 3.16335 226.062 3.65465 226.062 4.51775V5.67296C225.544 5.07544 224.814 4.79659 223.938 4.79659C222.849 4.79659 221.694 5.47379 221.694 6.90785C221.694 8.30208 222.849 9.03239 223.938 9.03239C224.801 9.03239 225.531 8.72699 226.062 8.14274V8.87305H227.058ZM224.296 8.31536C223.367 8.31536 222.716 7.73111 222.716 6.92113C222.716 6.09787 223.367 5.51362 224.296 5.51362C225 5.51362 225.677 5.77919 226.062 6.31033V7.51866C225.677 8.04979 225 8.31536 224.296 8.31536Z" fill="white"/>
<path d="M232.215 9.03239C233.901 9.03239 235.07 7.73111 235.07 5.65969C235.07 3.57498 233.901 2.30026 232.215 2.30026C231.312 2.30026 230.515 2.765 230.05 3.41564V2.4596H229.055V11.3163H230.05V7.90373C230.568 8.62076 231.338 9.03239 232.215 9.03239ZM231.962 8.14274C231.179 8.14274 230.396 7.66472 230.05 7.10703V4.21234C230.396 3.65465 231.179 3.18991 231.962 3.18991C233.25 3.18991 234.021 4.2389 234.021 5.65969C234.021 7.08047 233.25 8.14274 231.962 8.14274Z" fill="white"/>
<path d="M242.297 8.87305L239.442 5.36756L242.283 2.4596H241.022L237.649 5.87214V2.4596H236.653V8.87305H237.649V7.04063L238.711 5.99164L241.022 8.87305H242.297Z" fill="white"/>
<path d="M246.33 9.03239C247.379 9.03239 248.242 8.68715 248.879 8.04979L248.401 7.39915C247.897 7.91701 247.153 8.20913 246.423 8.20913C245.042 8.20913 244.192 7.19998 244.112 5.99164H249.304V5.73936C249.304 3.81399 248.162 2.30026 246.224 2.30026C244.391 2.30026 243.063 3.80071 243.063 5.65969C243.063 7.66472 244.431 9.03239 246.33 9.03239ZM248.322 5.26133H244.112C244.165 4.27874 244.843 3.12352 246.21 3.12352C247.671 3.12352 248.308 4.30529 248.322 5.26133Z" fill="white"/>
<path d="M253.082 8.87305V3.33597H254.954V2.4596H250.227V3.33597H252.086V8.87305H253.082Z" fill="white"/>
<path d="M257.216 8.87305L260.602 3.88038V8.87305H261.597V2.4596H260.615L257.255 7.35932V2.4596H256.26V8.87305H257.216Z" fill="white"/>
<path d="M264.582 8.87305V6.00492H267.928V8.87305H268.924V2.4596H267.928V5.12855H264.582V2.4596H263.586V8.87305H264.582Z" fill="white"/>
<path d="M275.401 2.4596H270.912V8.87305H271.908V3.33597H275.401V2.4596Z" fill="white"/>
<path d="M279.59 9.03239C280.64 9.03239 281.503 8.68715 282.14 8.04979L281.662 7.39915C281.157 7.91701 280.414 8.20913 279.683 8.20913C278.302 8.20913 277.453 7.19998 277.373 5.99164H282.565V5.73936C282.565 3.81399 281.423 2.30026 279.484 2.30026C277.652 2.30026 276.324 3.80071 276.324 5.65969C276.324 7.66472 277.692 9.03239 279.59 9.03239ZM281.582 5.26133H277.373C277.426 4.27874 278.103 3.12352 279.471 3.12352C280.932 3.12352 281.569 4.30529 281.582 5.26133Z" fill="white"/>
</svg>
