<svg width="285" height="23" viewBox="0 0 285 23" fill="none" xmlns="http://www.w3.org/2000/svg">
<path d="M12.4261 22.5528V19.6512H0V3.91608H3.40638V16.7023H10.9628V3.91608H14.3932V16.7023H15.8325V22.5528H12.4261ZM22.913 19.6512H19.6266V3.91608H23.033V14.0837L30.4455 3.91608H33.9478V19.6512H30.5414V9.10607L22.913 19.6512ZM49.2651 19.6512H45.8587V18.0706C43.4118 17.8662 41.5087 17.2213 40.1494 16.1361C38.806 15.051 38.1344 13.604 38.1344 11.7954C38.1344 10.0025 38.806 8.56348 40.1494 7.4783C41.5087 6.39312 43.4118 5.74045 45.8587 5.52026V3.91608H49.2651V5.52026C51.7119 5.74045 53.607 6.39312 54.9504 7.4783C56.3097 8.54784 56.9894 9.98688 56.9894 11.7954C56.9894 13.604 56.3097 15.051 54.9504 16.1361C53.607 17.2213 51.7119 17.8662 49.2651 18.0706V19.6512ZM52.4076 13.9894C53.1431 13.4232 53.5111 12.6919 53.5111 11.7954C53.5111 10.899 53.1431 10.1677 52.4076 9.60147C51.6879 9.03529 50.6402 8.67348 49.2651 8.5163V15.0745C50.6402 14.9174 51.6879 14.5556 52.4076 13.9894ZM42.7162 9.60147C41.9965 10.1677 41.6367 10.899 41.6367 11.7954C41.6367 12.6919 41.9965 13.4232 42.7162 13.9894C43.4358 14.5556 44.4833 14.9174 45.8587 15.0745V8.5163C44.4833 8.67348 43.4358 9.03529 42.7162 9.60147ZM64.629 19.6512H61.2226V3.91608H68.7071C70.3863 3.91608 71.6976 4.40362 72.6412 5.37871C73.6007 6.33807 74.0805 7.5412 74.0805 8.98811C74.0805 10.4192 73.6007 11.6223 72.6412 12.5975C71.6817 13.5727 70.3701 14.0601 68.7071 14.0601H64.629V19.6512ZM68.2513 11.1113C68.9389 11.1113 69.4987 10.9226 69.9305 10.5451C70.3782 10.152 70.6022 9.63302 70.6022 8.98811C70.6022 8.34321 70.3782 7.83216 69.9305 7.45471C69.4987 7.06153 68.9389 6.86494 68.2513 6.86494H64.629V11.1113H68.2513ZM85.5716 19.9343C83.1566 19.9343 81.1577 19.1714 79.5744 17.646C78.0071 16.1046 77.2236 14.1545 77.2236 11.7954C77.2236 9.43634 78.0071 7.49402 79.5744 5.96848C81.1577 4.42721 83.1566 3.65658 85.5716 3.65658C88.0023 3.65658 90.0014 4.41936 91.5688 5.94489C93.152 7.47043 93.9436 9.4207 93.9436 11.7954C93.9436 14.1701 93.152 16.1205 91.5688 17.646C90.0014 19.1714 88.0023 19.9343 85.5716 19.9343ZM82.0453 15.4992C82.9407 16.4744 84.1161 16.9618 85.5716 16.9618C87.0268 16.9618 88.2023 16.4744 89.0979 15.4992C89.9933 14.524 90.4413 13.2896 90.4413 11.7954C90.4413 10.3013 89.9933 9.06683 89.0979 8.09166C88.2023 7.11656 87.0268 6.62903 85.5716 6.62903C84.1161 6.62903 82.9407 7.11656 82.0453 8.09166C81.1655 9.06683 80.7259 10.3013 80.7259 11.7954C80.7259 13.2896 81.1655 14.524 82.0453 15.4992ZM106.817 19.6512H98.133V3.91608H106.553C108.009 3.91608 109.136 4.30925 109.935 5.09562C110.751 5.86625 111.159 6.80988 111.159 7.92653C111.159 8.8858 110.895 9.68789 110.367 10.3328C109.839 10.9777 109.184 11.3787 108.4 11.5359C109.264 11.6618 109.991 12.0942 110.583 12.8334C111.175 13.5727 111.471 14.4297 111.471 15.4048C111.471 16.6315 111.063 17.646 110.247 18.448C109.432 19.2501 108.288 19.6512 106.817 19.6512ZM105.809 10.2148C106.385 10.2148 106.841 10.0577 107.177 9.74302C107.513 9.42839 107.681 9.01965 107.681 8.5163C107.681 8.01294 107.505 7.60413 107.153 7.28957C106.817 6.9593 106.369 6.79416 105.809 6.79416H101.539V10.2148H105.809ZM105.929 16.7495C106.569 16.7495 107.073 16.5923 107.441 16.2777C107.809 15.9474 107.992 15.4992 107.992 14.933C107.992 14.414 107.809 13.9814 107.441 13.6355C107.073 13.2737 106.569 13.0929 105.929 13.0929H101.539V16.7495H105.929ZM123.419 19.9343C121.004 19.9343 119.005 19.1714 117.422 17.646C115.855 16.1046 115.071 14.1545 115.071 11.7954C115.071 9.43634 115.855 7.49402 117.422 5.96848C119.005 4.42721 121.004 3.65658 123.419 3.65658C125.85 3.65658 127.849 4.41936 129.416 5.94489C131 7.47043 131.791 9.4207 131.791 11.7954C131.791 14.1701 131 16.1205 129.416 17.646C127.849 19.1714 125.85 19.9343 123.419 19.9343ZM119.893 15.4992C120.788 16.4744 121.964 16.9618 123.419 16.9618C124.875 16.9618 126.05 16.4744 126.945 15.4992C127.841 14.524 128.289 13.2896 128.289 11.7954C128.289 10.3013 127.841 9.06683 126.945 8.09166C126.05 7.11656 124.875 6.62903 123.419 6.62903C121.964 6.62903 120.788 7.11656 119.893 8.09166C119.013 9.06683 118.573 10.3013 118.573 11.7954C118.573 13.2896 119.013 14.524 119.893 15.4992ZM139.267 19.6512H135.981V3.91608H139.387V14.0837L146.8 3.91608H150.302V19.6512H146.896V9.10607L139.267 19.6512ZM147.351 1.10877C146.312 2.49276 144.913 3.18476 143.153 3.18476C141.41 3.18476 140.003 2.49276 138.931 1.10877L140.275 0C140.979 0.975097 141.938 1.46263 143.153 1.46263C144.337 1.46263 145.288 0.975097 146.008 0L147.351 1.10877ZM168.734 19.9343C165.776 19.9343 163.553 18.6447 162.066 16.0654L164.992 14.6735C165.344 15.3497 165.856 15.9002 166.527 16.3249C167.215 16.7495 167.975 16.9618 168.806 16.9618C170.022 16.9618 171.061 16.6159 171.925 15.9238C172.789 15.2161 173.356 14.2881 173.628 13.1401H165.952V10.1912H173.556C173.252 9.10607 172.676 8.24115 171.829 7.59625C170.981 6.95143 169.974 6.62903 168.806 6.62903C167.991 6.62903 167.239 6.84922 166.551 7.28957C165.864 7.71421 165.344 8.2568 164.992 8.91734L162.066 7.50189C163.537 4.93836 165.76 3.65658 168.734 3.65658C171.181 3.65658 173.212 4.41936 174.828 5.94489C176.443 7.45471 177.25 9.4048 177.25 11.7954C177.25 14.186 176.443 16.1441 174.828 17.6695C173.212 19.1794 171.181 19.9343 168.734 19.9343ZM179.681 19.9343V16.9618C180.545 16.9618 181.209 16.6236 181.672 15.9474C182.136 15.2553 182.488 13.9265 182.728 11.9606L183.663 3.91608H195.034V19.6512H191.604V6.86494H186.734L186.11 12.1965C185.918 13.785 185.631 15.1061 185.247 16.1597C184.879 17.1977 184.399 17.9842 183.807 18.5188C183.232 19.0535 182.624 19.4232 181.984 19.6276C181.345 19.832 180.577 19.9343 179.681 19.9343ZM211.309 19.6512H199.986V3.91608H211.309V6.86494H203.393V10.1912H211.141V13.1401H203.393V16.7023H211.309V19.6512ZM233.114 19.6512H229.685V8.63425L225.174 19.6512H223.688L219.177 8.63425V19.6512H215.771V3.91608H220.544L224.431 13.4232L228.316 3.91608H233.114V19.6512ZM249.413 19.6512H238.092V3.91608H249.413V6.86494H241.497V10.1912H249.247V13.1401H241.497V16.7023H249.413V19.6512ZM268.271 19.6512H264.839V13.0457H257.283V19.6512H253.877V3.91608H257.283V10.0969H264.839V3.91608H268.271V19.6512ZM280.346 19.6512H276.917V6.86494H272.239V3.91608H285V6.86494H280.346V19.6512Z" fill="white"/>
</svg>
